<svg id="Layer_1" data-name="Layer 1" xmlns="http://www.w3.org/2000/svg" viewBox="0 0 112 86"><defs><style>.cls-1{fill:#006394;}</style></defs><path class="cls-1" d="M51.2,81.93a34.61,34.61,0,0,1-17.44-4.66A38.69,38.69,0,0,1,20.22,64.35,34.63,34.63,0,0,1,14.73,46.7a36,36,0,0,1,3.74-17.53A36.76,36.76,0,0,1,29.82,15.76,35.43,35.43,0,0,1,46.15,9.2,3.77,3.77,0,0,1,50.48,13v34L72.85,69.43a3.77,3.77,0,0,1,1.1,3,3.54,3.54,0,0,1-1.62,2.83,35.4,35.4,0,0,1-20.55,6.69ZM46.71,12.16h-.15a32.44,32.44,0,0,0-15,6A33.79,33.79,0,0,0,21.15,30.51,33.11,33.11,0,0,0,17.73,46.6a31.51,31.51,0,0,0,5,16.14A35.59,35.59,0,0,0,35.25,74.67a31.57,31.57,0,0,0,16.48,4.26,32.51,32.51,0,0,0,18.89-6.15.62.62,0,0,0,.33-.57.76.76,0,0,0-.22-.66L47.92,48.74a1.52,1.52,0,0,1-.44-1.06V13c0-.46-.17-.59-.26-.66A.73.73,0,0,0,46.71,12.16ZM83.41,73a3.34,3.34,0,0,1-2.64-1.22l-23-23.05a1.51,1.51,0,0,1-.33-1.64,1.5,1.5,0,0,1,1.39-.92H93.43a3.77,3.77,0,0,1,2.86,1.29,3.65,3.65,0,0,1,1,3.05,36.6,36.6,0,0,1-3.82,11.75A38.36,38.36,0,0,1,86.14,72l-.11.1A4.13,4.13,0,0,1,83.41,73Zm1.69-2.08h0ZM62.4,49.18,82.94,69.72l.11.12a.38.38,0,0,0,.36.17,1.1,1.1,0,0,0,.7-.22,35.3,35.3,0,0,0,6.68-8.92,33.52,33.52,0,0,0,3.5-10.78.69.69,0,0,0-.21-.6.79.79,0,0,0-.65-.31Zm26.35-7H56a1.5,1.5,0,0,1-1.5-1.5V7.91a3.64,3.64,0,0,1,1.23-2.8,3.87,3.87,0,0,1,2.86-1A35.83,35.83,0,0,1,75.14,9.33,37.06,37.06,0,0,1,87.32,21.52a35.88,35.88,0,0,1,5.27,16.55v.1a4.06,4.06,0,0,1-1,2.76A3.67,3.67,0,0,1,88.75,42.16Zm-31.25-3H88.75a.65.65,0,0,0,.57-.24,1,1,0,0,0,.27-.7,32.91,32.91,0,0,0-4.82-15.13,34,34,0,0,0-11.21-11.2A32.76,32.76,0,0,0,58.44,7.07a1,1,0,0,0-.71.27.68.68,0,0,0-.23.57Z"/></svg>