<svg id="Layer_1" data-name="Layer 1" xmlns="http://www.w3.org/2000/svg" viewBox="0 0 100 100"><defs><style>.cls-1{fill:#006394;}</style></defs><path class="cls-1" d="M26.83,68.83a10.65,10.65,0,1,1,0-21.3,11.22,11.22,0,0,1,1.15.06c0-.22,0-.45,0-.67a8.33,8.33,0,0,1,12.14-7.4,11.28,11.28,0,0,1,22,1.23,9.6,9.6,0,0,1,10.64,6.82h.44a10.62,10.62,0,1,1,0,21.23l-22.67,0Zm0-19.42a8.77,8.77,0,1,0,0,17.54l23.71,0,22.67,0a8.74,8.74,0,1,0,0-17.47c-.31,0-.66,0-1,.07a.94.94,0,0,1-1-.75,7.72,7.72,0,0,0-9.58-6,1,1,0,0,1-.8-.15.92.92,0,0,1-.38-.71,9.4,9.4,0,0,0-18.7-.76.94.94,0,0,1-.58.74.9.9,0,0,1-.92-.12A6.43,6.43,0,0,0,30,48.52a.94.94,0,0,1-.24.89,1,1,0,0,1-.89.26A8.46,8.46,0,0,0,26.83,49.41Z"/><path class="cls-1" d="M73.21,68.83H26.83a.94.94,0,0,1,0-1.88H73.21a.94.94,0,0,1,0,1.88Z"/></svg>