<svg id="Layer_1" data-name="Layer 1" xmlns="http://www.w3.org/2000/svg" viewBox="0 0 112 86"><defs><style>.cls-1{fill:#006394;}</style></defs><path class="cls-1" d="M83.23,71.73H28.77a17.84,17.84,0,0,1-9.62-32.86,26.15,26.15,0,0,1,26-24.6A25.81,25.81,0,0,1,66.62,25.66,18.87,18.87,0,0,1,71,25.15,19.31,19.31,0,0,1,88.66,36.89a17.85,17.85,0,0,1-5.43,34.84ZM45.11,17.27a23.12,23.12,0,0,0-23,22.49A1.5,1.5,0,0,1,21.37,41a14.84,14.84,0,0,0,7.4,27.7H83.23a14.85,14.85,0,0,0,3.91-29.17,1.47,1.47,0,0,1-1-.91,16.18,16.18,0,0,0-19.76-9.83,1.48,1.48,0,0,1-1.7-.65A22.86,22.86,0,0,0,45.11,17.27Z"/></svg>