<svg id="Layer_1" data-name="Layer 1" xmlns="http://www.w3.org/2000/svg" viewBox="0 0 112 86"><defs><style>.cls-1{fill:#006394;}</style></defs><path class="cls-1" d="M83.67,84.75H28.33a9,9,0,0,1-9-9V45.52a9,9,0,0,1,9-9.05H30.6V26.65A24.88,24.88,0,0,1,34,13.94a25.69,25.69,0,0,1,9.26-9.26,25.26,25.26,0,0,1,25.42,0A25.69,25.69,0,0,1,78,13.94,24.88,24.88,0,0,1,81.4,26.65v9.82h2.27a9,9,0,0,1,9,9.05V75.7a9,9,0,0,1-9,9ZM28.33,39.47a6,6,0,0,0-6,6.05V75.7a6,6,0,0,0,6,6H83.67a6,6,0,0,0,6-6V45.52a6,6,0,0,0-6-6.05H79.9A1.5,1.5,0,0,1,78.4,38V26.65a21.87,21.87,0,0,0-3-11.19,22.64,22.64,0,0,0-8.19-8.19,22.24,22.24,0,0,0-22.38,0,22.64,22.64,0,0,0-8.19,8.19,21.87,21.87,0,0,0-3,11.19V38a1.5,1.5,0,0,1-1.5,1.5Zm39,0H44.68a1.5,1.5,0,0,1-1.5-1.5V26.65A12.77,12.77,0,0,1,56,13.83,12.77,12.77,0,0,1,68.82,26.65V38A1.5,1.5,0,0,1,67.32,39.47Zm-21.14-3H65.82V26.65A9.77,9.77,0,0,0,56,16.83a9.77,9.77,0,0,0-9.82,9.82Z"/><path class="cls-1" d="M56,73.56a5.93,5.93,0,0,1-5.92-5.92V57.92a5.92,5.92,0,0,1,11.84,0v9.72A5.93,5.93,0,0,1,56,73.56ZM56,55a2.91,2.91,0,0,0-2.92,2.91v9.72a2.92,2.92,0,0,0,5.84,0V57.92A2.91,2.91,0,0,0,56,55Z"/></svg>