<svg id="Layer_1" data-name="Layer 1" xmlns="http://www.w3.org/2000/svg" viewBox="0 0 112 86"><defs><style>.cls-1{fill:#006394;}</style></defs><path class="cls-1" d="M92.82,81.32H19.18a10.33,10.33,0,0,1-7.53-3.17,10.31,10.31,0,0,1-3.18-7.53V68.31a3.72,3.72,0,0,1,3.8-3.8H46.65a1.5,1.5,0,0,1,1.06.44A1.52,1.52,0,0,1,48.15,66a3.07,3.07,0,0,0,1,2.06,2.94,2.94,0,0,0,2.22,1.05h8.77a3.16,3.16,0,0,0,2.28-.82,3.44,3.44,0,0,0,1-2.39,1.5,1.5,0,0,1,1.5-1.4H99.73a3.72,3.72,0,0,1,3.8,3.8v2.31a10.84,10.84,0,0,1-10.71,10.7ZM12.27,67.51a.74.74,0,0,0-.59.21.78.78,0,0,0-.21.59v2.31A7.32,7.32,0,0,0,13.77,76a7.34,7.34,0,0,0,5.41,2.29H92.82a7.84,7.84,0,0,0,7.71-7.7V68.31a.78.78,0,0,0-.21-.59.74.74,0,0,0-.59-.21H66.2a5.92,5.92,0,0,1-1.69,3,6.08,6.08,0,0,1-4.34,1.64H51.4a5.93,5.93,0,0,1-4.4-2,6.82,6.82,0,0,1-1.62-2.63Zm80.55-4.6H19.18a1.5,1.5,0,0,1-1.5-1.5V13.08a8.13,8.13,0,0,1,2.45-5.95,8.13,8.13,0,0,1,5.95-2.45H85.92a8.13,8.13,0,0,1,6,2.45,8.13,8.13,0,0,1,2.45,6V61.41A1.5,1.5,0,0,1,92.82,62.91Zm-72.14-3H91.32V13.08a5.36,5.36,0,0,0-5.4-5.4H26.08a5.36,5.36,0,0,0-5.4,5.4Zm62.94-6.2H28.38a1.51,1.51,0,0,1-1.5-1.5V15.38a1.51,1.51,0,0,1,1.5-1.5H83.62a1.51,1.51,0,0,1,1.5,1.5V52.21A1.51,1.51,0,0,1,83.62,53.71Zm-53.74-3H82.12V16.88H29.88ZM63.7,45.94A4.08,4.08,0,0,1,61.1,45a1.14,1.14,0,0,1-.16-.15l-1.52-1.66a3.6,3.6,0,0,1,0-5.36l4.07-4.07-4.07-4.06a3.61,3.61,0,0,1,0-5.37l1.52-1.65a1.14,1.14,0,0,1,.16-.15,4.16,4.16,0,0,1,5.19,0l.13.11,8.29,8.44a3.6,3.6,0,0,1,0,5.37l-8.29,8.44-.13.11A4.05,4.05,0,0,1,63.7,45.94Zm-.65-3.19a1.16,1.16,0,0,0,1.3,0l8.27-8.41a.71.71,0,0,1,.13-.12c.07-.06.16-.13.16-.42s-.09-.35-.16-.41a.71.71,0,0,1-.13-.12l-8.27-8.41a1.16,1.16,0,0,0-1.3,0l-1.49,1.63a1.14,1.14,0,0,1-.16.15c-.07.06-.16.13-.16.41s.09.36.16.42l.12.11,5.18,5.17a1.51,1.51,0,0,1,0,2.12L61.52,40l-.12.11c-.07.06-.16.13-.16.41s.09.36.16.42a1.14,1.14,0,0,1,.16.15ZM48.3,45.94A4.05,4.05,0,0,1,45.71,45l-.13-.11-8.29-8.44a3.6,3.6,0,0,1,0-5.37l8.29-8.44.13-.11a4.16,4.16,0,0,1,5.19,0,1.14,1.14,0,0,1,.16.15l1.52,1.65a3.61,3.61,0,0,1,0,5.37l-4.07,4.06,4.07,4.07a3.6,3.6,0,0,1,0,5.36l-1.52,1.66a1.14,1.14,0,0,1-.16.15A4.08,4.08,0,0,1,48.3,45.94Zm-.65-3.2a1.16,1.16,0,0,0,1.3,0l1.49-1.63A1.14,1.14,0,0,1,50.6,41c.07-.06.16-.13.16-.42s-.09-.35-.16-.41L50.48,40,45.3,34.85a1.51,1.51,0,0,1,0-2.12l5.18-5.17.12-.11c.07-.06.16-.13.16-.42s-.09-.35-.16-.41a1.14,1.14,0,0,1-.16-.15L49,24.84a1.16,1.16,0,0,0-1.3,0l-8.27,8.41a.71.71,0,0,1-.13.12c-.07.06-.16.13-.16.41s.09.36.16.42a.71.71,0,0,1,.13.12Z"/></svg>