<svg id="Layer_1" data-name="Layer 1" xmlns="http://www.w3.org/2000/svg" viewBox="0 0 112 86"><defs><style>.cls-1{fill:#006394;}</style></defs><path class="cls-1" d="M56,84.29A41.29,41.29,0,1,1,97.29,43,41.33,41.33,0,0,1,56,84.29ZM56,4.71A38.29,38.29,0,1,0,94.29,43,38.32,38.32,0,0,0,56,4.71Z"/><path class="cls-1" d="M56,84.29a1.5,1.5,0,0,1-1.5-1.5V3.21a1.5,1.5,0,0,1,3,0V82.79A1.5,1.5,0,0,1,56,84.29Z"/><path class="cls-1" d="M95.79,44.5H16.21a1.5,1.5,0,0,1,0-3H95.79a1.5,1.5,0,1,1,0,3Z"/><path class="cls-1" d="M51.85,84.08a1.47,1.47,0,0,1-1-.39C42.28,75.91,37,60.31,37,43s5.33-32.9,13.9-40.68a1.5,1.5,0,1,1,2,2.22C45,11.66,40,26.75,40,43S45,74.34,52.86,81.46a1.5,1.5,0,0,1-1,2.62Z"/><path class="cls-1" d="M60.15,84.08a1.5,1.5,0,0,1-1-2.62C67,74.34,72,59.24,72,43S67,11.66,59.15,4.54a1.5,1.5,0,1,1,2-2.22C69.73,10.1,75,25.69,75,43S69.73,75.9,61.16,83.69A1.49,1.49,0,0,1,60.15,84.08Z"/><path class="cls-1" d="M56,84.29a1.5,1.5,0,0,1-1.5-1.5V3.21a1.5,1.5,0,0,1,3,0V82.79A1.5,1.5,0,0,1,56,84.29Z"/><path class="cls-1" d="M95.79,44.5H16.21a1.5,1.5,0,0,1,0-3H95.79a1.5,1.5,0,1,1,0,3Z"/><path class="cls-1" d="M90.54,64.29H21.47a1.5,1.5,0,1,1,0-3H90.54a1.5,1.5,0,0,1,0,3Z"/><path class="cls-1" d="M90.54,24.72H21.47a1.5,1.5,0,0,1,0-3H90.54a1.5,1.5,0,0,1,0,3Z"/><path class="cls-1" d="M51.85,84.07a1.42,1.42,0,0,1-1-.39C42.28,75.9,37,60.32,37,43s5.33-32.91,13.9-40.69a1.5,1.5,0,1,1,2,2.22C45,11.66,40,26.76,40,43S45,74.34,52.86,81.46a1.5,1.5,0,0,1-1,2.61Z"/><path class="cls-1" d="M60.15,84.07a1.5,1.5,0,0,1-1-2.61C67,74.34,72,59.24,72,43S67,11.66,59.15,4.53a1.5,1.5,0,1,1,2-2.22C69.73,10.1,75,25.69,75,43S69.73,75.9,61.16,83.68A1.44,1.44,0,0,1,60.15,84.07Z"/></svg>