<svg id="Layer_1" data-name="Layer 1" xmlns="http://www.w3.org/2000/svg" viewBox="0 0 112 86"><defs><style>.cls-1{fill:#006394;}</style></defs><path class="cls-1" d="M61,54.53A11.08,11.08,0,1,1,72,43.45,11.09,11.09,0,0,1,61,54.53Zm0-19.15A8.08,8.08,0,1,0,69,43.45,8.08,8.08,0,0,0,61,35.38Z"/><path class="cls-1" d="M75.64,69.79A1.49,1.49,0,0,1,74.33,69L65.16,52.46A1.5,1.5,0,0,1,67.78,51L77,67.56a1.5,1.5,0,0,1-.58,2A1.59,1.59,0,0,1,75.64,69.79Z"/><path class="cls-1" d="M80.59,85.91A10.33,10.33,0,1,1,90.91,75.59,10.34,10.34,0,0,1,80.59,85.91Zm0-17.65a7.33,7.33,0,1,0,7.32,7.33A7.34,7.34,0,0,0,80.59,68.26Z"/><path class="cls-1" d="M96.17,58.13A6.85,6.85,0,1,1,103,51.28,6.86,6.86,0,0,1,96.17,58.13Zm0-10.7A3.85,3.85,0,1,0,100,51.28,3.86,3.86,0,0,0,96.17,47.43Z"/><path class="cls-1" d="M85.92,70.07a1.59,1.59,0,0,1-.75-.2,1.5,1.5,0,0,1-.54-2.06l7.45-12.73a1.49,1.49,0,0,1,2-.54,1.51,1.51,0,0,1,.54,2.05L87.22,69.33A1.51,1.51,0,0,1,85.92,70.07Z"/><path class="cls-1" d="M90.83,52.78a1.55,1.55,0,0,1-.31,0L69.58,48.4a1.5,1.5,0,0,1,.61-2.94l20.94,4.35a1.5,1.5,0,0,1,1.16,1.78A1.49,1.49,0,0,1,90.83,52.78Z"/><path class="cls-1" d="M45.23,64.69a1.41,1.41,0,0,1-.83-.26A1.49,1.49,0,0,1,44,62.35l8.8-13.12a1.5,1.5,0,0,1,2.49,1.67L46.48,64A1.49,1.49,0,0,1,45.23,64.69Z"/><path class="cls-1" d="M41,77.09a8.44,8.44,0,1,1,8.43-8.44A8.45,8.45,0,0,1,41,77.09Zm0-13.87a5.44,5.44,0,1,0,5.43,5.43A5.44,5.44,0,0,0,41,63.22Z"/><path class="cls-1" d="M96.17,47.43a1.49,1.49,0,0,1-1.47-1.24L90.45,21.81a1.5,1.5,0,0,1,3-.51l4.25,24.37a1.5,1.5,0,0,1-1.22,1.74A1.14,1.14,0,0,1,96.17,47.43Z"/><path class="cls-1" d="M91,23.05a7.46,7.46,0,1,1,7.45-7.45A7.46,7.46,0,0,1,91,23.05Zm0-11.91a4.46,4.46,0,1,0,4.45,4.46A4.46,4.46,0,0,0,91,11.14Z"/><path class="cls-1" d="M19.6,51.93a1.5,1.5,0,0,1-.2-3l32.14-4.41a1.5,1.5,0,0,1,.41,3l-32.14,4.4Z"/><path class="cls-1" d="M15.15,58a6.17,6.17,0,1,1,6.17-6.17A6.17,6.17,0,0,1,15.15,58Zm0-9.34a3.17,3.17,0,1,0,3.17,3.17A3.17,3.17,0,0,0,15.15,48.7Z"/><path class="cls-1" d="M54.76,37.66a1.5,1.5,0,0,1-1.11-.49L32.21,13.59a1.5,1.5,0,1,1,2.21-2L55.87,35.15a1.5,1.5,0,0,1-1.11,2.51Z"/><path class="cls-1" d="M30.94,14.89a4.63,4.63,0,1,1,4.63-4.62A4.62,4.62,0,0,1,30.94,14.89Zm0-6.25a1.63,1.63,0,1,0,1.63,1.63A1.63,1.63,0,0,0,30.94,8.64Z"/><path class="cls-1" d="M16.39,48.87a1.47,1.47,0,0,1-.5-.09A1.5,1.5,0,0,1,15,46.87L27.29,11.94A1.5,1.5,0,0,1,29.2,11a1.49,1.49,0,0,1,.92,1.91L17.8,47.87A1.49,1.49,0,0,1,16.39,48.87Z"/><path class="cls-1" d="M74.55,29.78a4.87,4.87,0,1,1,4.87-4.86A4.87,4.87,0,0,1,74.55,29.78Zm0-6.73a1.87,1.87,0,1,0,1.87,1.87A1.87,1.87,0,0,0,74.55,23.05Z"/><path class="cls-1" d="M67.64,38.1a1.51,1.51,0,0,1-1.27-2.29l5.36-8.69a1.5,1.5,0,0,1,2.55,1.57l-5.36,8.69A1.5,1.5,0,0,1,67.64,38.1Z"/><path class="cls-1" d="M92.54,48.87a1.49,1.49,0,0,1-1.2-.6L76,27.94a1.5,1.5,0,0,1,2.4-1.81L93.73,46.46a1.5,1.5,0,0,1-.29,2.1A1.47,1.47,0,0,1,92.54,48.87Z"/><path class="cls-1" d="M34.61,38.7a4.53,4.53,0,1,1,4.53-4.52A4.53,4.53,0,0,1,34.61,38.7Zm0-6.05a1.53,1.53,0,1,0,1.53,1.53A1.53,1.53,0,0,0,34.61,32.65Z"/><path class="cls-1" d="M34.61,32.65a1.51,1.51,0,0,1-1.47-1.2L29.48,13.69a1.5,1.5,0,1,1,2.93-.6l3.67,17.76a1.49,1.49,0,0,1-1.16,1.77Z"/><path class="cls-1" d="M18.55,50.17a1.5,1.5,0,0,1-1-2.6L31.22,34.94a1.5,1.5,0,0,1,2,2.21L19.56,49.77A1.47,1.47,0,0,1,18.55,50.17Z"/><path class="cls-1" d="M52,41.75a1.34,1.34,0,0,1-.48-.08L36.93,36.73a1.5,1.5,0,0,1,1-2.84l14.53,4.94A1.5,1.5,0,0,1,52,41.75Z"/><path class="cls-1" d="M13.6,27.42a4.63,4.63,0,1,1,4.63-4.62A4.62,4.62,0,0,1,13.6,27.42Zm0-6.25a1.63,1.63,0,1,0,1.63,1.63A1.63,1.63,0,0,0,13.6,21.17Z"/><path class="cls-1" d="M12.76,49.36H12.7a1.5,1.5,0,0,1-1.44-1.55l.84-21.94a1.54,1.54,0,0,1,1.56-1.44A1.51,1.51,0,0,1,15.1,26l-.84,21.93A1.51,1.51,0,0,1,12.76,49.36Z"/><path class="cls-1" d="M15.68,22a1.48,1.48,0,0,1-1.22-.62,1.5,1.5,0,0,1,.34-2.1l12.42-8.91A1.5,1.5,0,1,1,29,12.77L16.55,21.68A1.48,1.48,0,0,1,15.68,22Z"/><path class="cls-1" d="M71.43,25.16a1.51,1.51,0,0,1-.5-.09L33.56,11.68a1.5,1.5,0,0,1,1-2.83l37.36,13.4a1.5,1.5,0,0,1-.51,2.91Z"/><path class="cls-1" d="M76.71,23.84a1.5,1.5,0,0,1-.77-2.79l8.55-5.13A1.5,1.5,0,0,1,86,18.5l-8.56,5.12A1.46,1.46,0,0,1,76.71,23.84Z"/><path class="cls-1" d="M34.61,67.38a1.5,1.5,0,0,1-.76-.21l-17.06-10a1.5,1.5,0,1,1,1.52-2.59l17.06,10a1.5,1.5,0,0,1-.76,2.8Z"/><path class="cls-1" d="M72,78.88a1.31,1.31,0,0,1-.39,0L47.14,72.35a1.5,1.5,0,1,1,.77-2.9l24.42,6.48A1.5,1.5,0,0,1,72,78.88Z"/><path class="cls-1" d="M56.63,11.77a5.84,5.84,0,1,1,5.84-5.84A5.85,5.85,0,0,1,56.63,11.77Zm0-8.68a2.84,2.84,0,1,0,2.84,2.84A2.84,2.84,0,0,0,56.63,3.09Z"/><path class="cls-1" d="M33.88,10.69a1.51,1.51,0,0,1-1.47-1.18,1.48,1.48,0,0,1,1.14-1.78L52,3.65A1.51,1.51,0,0,1,53.83,4.8a1.49,1.49,0,0,1-1.14,1.78L34.2,10.66Z"/><path class="cls-1" d="M72.69,23.62a1.49,1.49,0,0,1-1-.44l-13.15-13a1.5,1.5,0,1,1,2.1-2.14l13.16,13a1.5,1.5,0,0,1,0,2.12A1.48,1.48,0,0,1,72.69,23.62Z"/><path class="cls-1" d="M85.94,14a1.73,1.73,0,0,1-.38-.05l-25-6.53a1.5,1.5,0,1,1,.76-2.9l25,6.52a1.51,1.51,0,0,1-.38,3Z"/></svg>