<svg id="Layer_1" data-name="Layer 1" xmlns="http://www.w3.org/2000/svg" viewBox="0 0 100 100"><defs><style>.cls-1{fill:#006394;}</style></defs><path class="cls-1" d="M93.47,71.26H53.37a.91.91,0,0,1-.91-.91v-26A3.57,3.57,0,0,1,56,40.75H90.83a3.56,3.56,0,0,1,3.55,3.56v26A.91.91,0,0,1,93.47,71.26ZM54.28,69.44H92.56V44.31a1.74,1.74,0,0,0-1.73-1.74H56a1.74,1.74,0,0,0-1.74,1.74Z"/><path class="cls-1" d="M94.05,75.45H52.8a5.11,5.11,0,0,1-5.1-5.1.9.9,0,0,1,.9-.91H98.24a.91.91,0,0,1,.91.91A5.11,5.11,0,0,1,94.05,75.45ZM49.64,71.26a3.3,3.3,0,0,0,3.16,2.38H94.05a3.29,3.29,0,0,0,3.15-2.38Z"/><path class="cls-1" d="M52.9,68.21H6A5.19,5.19,0,0,1,.85,63V29.73A5.19,5.19,0,0,1,6,24.55H60.17a5.18,5.18,0,0,1,5.18,5.18V41.17a.91.91,0,0,1-1.82,0V29.73a3.36,3.36,0,0,0-3.36-3.36H6a3.36,3.36,0,0,0-3.36,3.36V63A3.37,3.37,0,0,0,6,66.39H52.9a.91.91,0,0,1,0,1.82Z"/><path class="cls-1" d="M52.9,68.21H6A5.19,5.19,0,0,1,.85,63V59.34a.91.91,0,0,1,.91-.91H53.1a.91.91,0,1,1,0,1.81H2.67V63A3.37,3.37,0,0,0,6,66.39H52.9a.91.91,0,0,1,0,1.82Z"/><path class="cls-1" d="M36.49,75.45H29.71a.91.91,0,0,1-.91-.91V67.3a.91.91,0,0,1,.91-.91h6.78a.91.91,0,0,1,.91.91v7.24A.91.91,0,0,1,36.49,75.45Zm-5.87-1.81h5V68.21h-5Z"/><path class="cls-1" d="M42.94,75.45H23.26a.91.91,0,0,1,0-1.81H42.94a.91.91,0,1,1,0,1.81Z"/></svg>