<svg id="Layer_1" data-name="Layer 1" xmlns="http://www.w3.org/2000/svg" viewBox="0 0 100 100"><defs><style>.cls-1{fill:#006394;}</style></defs><path class="cls-1" d="M50,47.41a.93.93,0,0,1-.66-.27L38.13,35.93A8.8,8.8,0,0,1,50,23a8.81,8.81,0,0,1,11.87.53h0a8.81,8.81,0,0,1,0,12.44L50.66,47.14A.93.93,0,0,1,50,47.41ZM44.36,22.79a6.92,6.92,0,0,0-4.9,11.82L50,45.15,60.54,34.61a6.92,6.92,0,0,0-9.79-9.79l-.09.08a.91.91,0,0,1-.66.28h0a1,1,0,0,1-.67-.28l-.08-.09A6.93,6.93,0,0,0,44.36,22.79Z"/><path class="cls-1" d="M32.17,79.09h-8a.94.94,0,0,1-.94-.94V55.65a.94.94,0,0,1,.94-.94h8a.94.94,0,0,1,.94.94v22.5A.94.94,0,0,1,32.17,79.09Zm-7.1-1.88h6.16V56.59H25.07Z"/><path class="cls-1" d="M45.28,66.2A.94.94,0,0,1,45,64.37l5.76-1.79a.94.94,0,0,1,.41,0l10.77,1.51a1.19,1.19,0,0,0,1.33-.91l.09-.41a1.18,1.18,0,0,0-.89-1.41l-12-2.85L32.34,61.82A.94.94,0,0,1,32,60l18.27-3.38a1,1,0,0,1,.39,0l12.25,2.9a3.07,3.07,0,0,1,2.28,3.66l-.09.41a3.08,3.08,0,0,1-3.42,2.35L51.12,64.44l-5.56,1.72A1,1,0,0,1,45.28,66.2Z"/><path class="cls-1" d="M44.53,74.68a106.56,106.56,0,0,1-12.47-.74.94.94,0,0,1,.22-1.86,104.1,104.1,0,0,0,39.59-3l2.18-.59a1.17,1.17,0,0,0,.87-1,1.16,1.16,0,0,0-.62-1.18,1.09,1.09,0,0,0-.56-.15l-11.95-.27a.94.94,0,0,1-.92-1,1,1,0,0,1,1-.92l11.92.28h0a3.06,3.06,0,0,1,.79,6l-2.19.6A106,106,0,0,1,44.53,74.68Z"/></svg>