<svg id="Layer_1" data-name="Layer 1" xmlns="http://www.w3.org/2000/svg" viewBox="0 0 100 100"><defs><style>.cls-1{fill:#006394;}</style></defs><path class="cls-1" d="M76.72,72.73a.94.94,0,0,1-.94-.94V47a.94.94,0,1,1,1.88,0V71.79A.94.94,0,0,1,76.72,72.73Z"/><path class="cls-1" d="M17.72,72.73a.94.94,0,0,1-.94-.94V38.46A5.22,5.22,0,0,1,22,33.24H63.85a.94.94,0,1,1,0,1.88H22a3.35,3.35,0,0,0-3.34,3.34V71.79A.94.94,0,0,1,17.72,72.73Z"/><path class="cls-1" d="M77.56,79.34H16.88a7.14,7.14,0,0,1-7.12-7.12,1,1,0,0,1,1-.94H37.18a2.26,2.26,0,0,1,2,1.3.36.36,0,0,0,.33.21h15.3a.36.36,0,0,0,.33-.21,2.26,2.26,0,0,1,2-1.3H83.74a1,1,0,0,1,.94.94A7.14,7.14,0,0,1,77.56,79.34ZM11.73,73.16a5.24,5.24,0,0,0,5.15,4.29H77.56a5.24,5.24,0,0,0,5.15-4.29H57.22a.37.37,0,0,0-.33.22h0a2.25,2.25,0,0,1-2,1.29H39.55a2.25,2.25,0,0,1-2-1.29.37.37,0,0,0-.33-.22ZM56,73h0Z"/><path class="cls-1" d="M76.63,40.47a5.19,5.19,0,0,1-4.24-2.15.95.95,0,0,1,1.5-1.15,3.56,3.56,0,0,0,4.52,1l.09,0a1.56,1.56,0,0,0,.83-1.63A2,2,0,0,0,78,34.84l-3-.9a3.28,3.28,0,0,1-2.65-3.38,3.19,3.19,0,0,1,1.07-2.43,5,5,0,0,1,3.48-1,4.47,4.47,0,0,1,4.37,3,.94.94,0,1,1-1.8.52A2.58,2.58,0,0,0,76.81,29a3.45,3.45,0,0,0-2.22.55,1.33,1.33,0,0,0-.43,1c0,.6.14,1.21,1.3,1.55l3,.9a3.88,3.88,0,0,1,2.71,3.31,3.45,3.45,0,0,1-2,3.52A5.88,5.88,0,0,1,76.63,40.47Z"/><path class="cls-1" d="M76.82,29a.94.94,0,0,1-.94-.94v-2.4a.94.94,0,0,1,1.88,0v2.4A.94.94,0,0,1,76.82,29Z"/><path class="cls-1" d="M76.82,43a1,1,0,0,1-.94-1V39.68a.94.94,0,0,1,1.88,0v2.39A1,1,0,0,1,76.82,43Z"/><path class="cls-1" d="M76.72,47.7A13.52,13.52,0,1,1,90.24,34.18,13.54,13.54,0,0,1,76.72,47.7Zm0-25.15A11.63,11.63,0,1,0,88.35,34.18,11.65,11.65,0,0,0,76.72,22.55Z"/><path class="cls-1" d="M50.5,46.33l-.19,0a.94.94,0,0,1-.73-1.11L50.46,41l-4.24-.88a.94.94,0,0,1,.38-1.84l5.17,1.07a1,1,0,0,1,.73,1.12l-1.08,5.16A.94.94,0,0,1,50.5,46.33Z"/><path class="cls-1" d="M30,55.3a1,1,0,0,1-.79-.42,1,1,0,0,1,.27-1.31L51.06,39.44a.94.94,0,1,1,1,1.57L30.52,55.15A1,1,0,0,1,30,55.3Z"/><path class="cls-1" d="M38.21,68.86H29.75a.94.94,0,0,1-.94-.94V59.46a1,1,0,0,1,.94-.94h8.46a1,1,0,0,1,.94.94v8.46A.94.94,0,0,1,38.21,68.86ZM30.69,67h6.57V60.41H30.69Z"/><path class="cls-1" d="M51,68.86H42.58a.94.94,0,0,1-.94-.94V53a.94.94,0,0,1,.94-.94H51A.94.94,0,0,1,52,53V67.92A.94.94,0,0,1,51,68.86ZM43.52,67h6.57V53.93H43.52Z"/><path class="cls-1" d="M63.85,68.86H55.4a.94.94,0,0,1-.94-.94V46.09a1,1,0,0,1,.94-1h8.45a1,1,0,0,1,.95,1V67.92A1,1,0,0,1,63.85,68.86ZM56.34,67h6.57V47H56.34Z"/></svg>