<svg id="Layer_1" data-name="Layer 1" xmlns="http://www.w3.org/2000/svg" viewBox="0 0 100 100"><defs><style>.cls-1{fill:#006394;}</style></defs><path class="cls-1" d="M67.68,78.76H32.32a4.56,4.56,0,0,1-4.56-4.56V25.8a4.56,4.56,0,0,1,4.56-4.56H67.68a4.56,4.56,0,0,1,4.56,4.56V74.2A4.56,4.56,0,0,1,67.68,78.76ZM32.32,23.12a2.68,2.68,0,0,0-2.68,2.68V74.2a2.68,2.68,0,0,0,2.68,2.68H67.68a2.68,2.68,0,0,0,2.68-2.68V25.8a2.68,2.68,0,0,0-2.68-2.68Z"/><path class="cls-1" d="M65.27,28.69H34.73a.94.94,0,0,1-.94-.94V22.18a.94.94,0,0,1,.94-.94H65.27a.94.94,0,0,1,.94.94v5.57A.94.94,0,0,1,65.27,28.69Zm-29.6-1.88H64.33V23.12H35.67Z"/><path class="cls-1" d="M39.53,43.87h0a1,1,0,0,1-.67-.27l-2.34-2.35a.94.94,0,1,1,1.33-1.32l1.68,1.67,4-4a.94.94,0,0,1,1.33,0,1,1,0,0,1,0,1.33L40.19,43.6A1,1,0,0,1,39.53,43.87Z"/><path class="cls-1" d="M39.53,55.59h0a1,1,0,0,1-.67-.27L36.52,53a.94.94,0,0,1,0-1.33,1,1,0,0,1,1.33,0l1.68,1.68,4-4a.94.94,0,0,1,1.33,0,1,1,0,0,1,0,1.33l-4.69,4.69A1,1,0,0,1,39.53,55.59Z"/><path class="cls-1" d="M39.53,67.31h0a1,1,0,0,1-.67-.27l-2.34-2.35a.94.94,0,0,1,0-1.33,1,1,0,0,1,1.33,0L39.53,65l4-4a.94.94,0,0,1,1.33,0,1,1,0,0,1,0,1.33L40.19,67A1,1,0,0,1,39.53,67.31Z"/><path class="cls-1" d="M62.82,43.87H49.49a.94.94,0,1,1,0-1.88H62.82a.94.94,0,0,1,0,1.88Z"/><path class="cls-1" d="M62.82,55.59H49.49a.94.94,0,0,1,0-1.88H62.82a.94.94,0,0,1,0,1.88Z"/><path class="cls-1" d="M62.82,67.31H49.49a.94.94,0,1,1,0-1.88H62.82a.94.94,0,0,1,0,1.88Z"/></svg>