<svg id="Layer_1" data-name="Layer 1" xmlns="http://www.w3.org/2000/svg" viewBox="0 0 100 100"><defs><style>.cls-1{fill:#006394;}</style></defs><path class="cls-1" d="M20.32,75.66a.85.85,0,0,1-.86-.86V56.05a.86.86,0,0,1,.35-.7.87.87,0,0,1,.78-.12l7.86,2.56a.87.87,0,0,1,.59.82V72.24a.87.87,0,0,1-.59.82l-7.86,2.56A.84.84,0,0,1,20.32,75.66Zm.87-18.42V73.61l6.12-2V59.24Zm7,15Z"/><path class="cls-1" d="M41.58,69.3H28.18a.86.86,0,0,1-.87-.86v-6a.86.86,0,0,1,.87-.86h13.4a.87.87,0,0,1,0,1.73H29v4.29H41.58a.87.87,0,0,1,0,1.73Z"/><path class="cls-1" d="M41.58,69.3a3.88,3.88,0,1,1,3.87-3.87A3.88,3.88,0,0,1,41.58,69.3Zm0-6a2.15,2.15,0,1,0,2.15,2.15A2.15,2.15,0,0,0,41.58,63.28Z"/><path class="cls-1" d="M44.21,67.75a.85.85,0,0,1-.38-.09.86.86,0,0,1-.39-1.16L49.15,55l-3.84-1.93-4.76,9.63a.88.88,0,0,1-1.16.39A.86.86,0,0,1,39,61.92l5.15-10.41a.87.87,0,0,1,.5-.44.89.89,0,0,1,.66,0l5.39,2.71A.87.87,0,0,1,51.08,55L45,67.27A.89.89,0,0,1,44.21,67.75Z"/><path class="cls-1" d="M66.48,63.58a.85.85,0,0,1-.38-.09l-37.87-19a.82.82,0,0,1-.43-.5.84.84,0,0,1,0-.66L33,33a.87.87,0,0,1,1.16-.39L72,51.64a.88.88,0,0,1,.43.5.84.84,0,0,1,0,.66L67.26,63.1A.86.86,0,0,1,66.48,63.58ZM29.78,43.33,66.1,61.56l4.39-8.76L34.17,34.57Z"/><path class="cls-1" d="M73.93,54.42a.92.92,0,0,1-.39-.09L31.12,33a.85.85,0,0,1-.47-.86l.75-7.07a.88.88,0,0,1,.45-.67.87.87,0,0,1,.8,0L80.07,48.22a.87.87,0,0,1,.15,1.45l-5.75,4.57A.9.9,0,0,1,73.93,54.42ZM32.43,31.77l41.4,20.77,4.25-3.38L33,26.53Z"/></svg>