<svg id="Layer_1" data-name="Layer 1" xmlns="http://www.w3.org/2000/svg" viewBox="0 0 100 100"><defs><style>.cls-1{fill:#006394;}</style></defs><path class="cls-1" d="M31.89,80.69H28.44a2.87,2.87,0,0,1-2.87-2.86V61.26a2.88,2.88,0,0,1,2.87-2.87h3.45a2.87,2.87,0,0,1,2.86,2.87V77.83A2.86,2.86,0,0,1,31.89,80.69ZM28.44,60.27a1,1,0,0,0-1,1V77.83a1,1,0,0,0,1,1h3.45a1,1,0,0,0,1-1V61.26a1,1,0,0,0-1-1Z"/><path class="cls-1" d="M45.71,69a.94.94,0,0,1-.27-1.84l5.22-1.62a1,1,0,0,1,.41,0l9.79,1.38a1,1,0,0,0,1.1-.76l.09-.37a1,1,0,0,0-.74-1.18L50.38,62,34,65a.94.94,0,1,1-.34-1.84L50.23,60.1a1,1,0,0,1,.39,0l11.12,2.63a2.88,2.88,0,0,1,2.14,3.43l-.09.36a2.87,2.87,0,0,1-3.19,2.21L51,67.39,46,69A1.26,1.26,0,0,1,45.71,69Z"/><path class="cls-1" d="M45,76.69A96,96,0,0,1,33.7,76a.94.94,0,1,1,.22-1.86,94.35,94.35,0,0,0,35.91-2.67l2-.54A1,1,0,0,0,72,69.12a1,1,0,0,0-.48-.12L60.7,68.75a.94.94,0,0,1,0-1.88l10.83.25h0a2.93,2.93,0,0,1,1.34.34,2.87,2.87,0,0,1-.61,5.3l-2,.54A96,96,0,0,1,45,76.69Z"/><path class="cls-1" d="M49.87,53.41A3.85,3.85,0,0,1,46,49.67l0-.4a17.93,17.93,0,0,0-3-9.32,8.49,8.49,0,1,1,15.56-4.7A8.37,8.37,0,0,1,57,40.09a17.86,17.86,0,0,0-3.23,9.58A3.87,3.87,0,0,1,49.87,53.41ZM50,28.64A6.61,6.61,0,0,0,44.49,38.9a19.75,19.75,0,0,1,3.37,10.3v.41a2,2,0,0,0,4,0A19.74,19.74,0,0,1,55.43,39,6.61,6.61,0,0,0,50,28.64Z"/><path class="cls-1" d="M49.89,47.52a7.85,7.85,0,0,1-3.57-.83.94.94,0,0,1,.93-1.64,6.23,6.23,0,0,0,5.42,0,.94.94,0,1,1,.79,1.7A8.46,8.46,0,0,1,49.89,47.52Z"/><path class="cls-1" d="M50,23.8a.94.94,0,0,1-.94-.94V20.25a.94.94,0,1,1,1.88,0v2.61A.94.94,0,0,1,50,23.8Z"/><path class="cls-1" d="M42.06,26.69a.92.92,0,0,1-.72-.34l-1.68-2a.94.94,0,0,1,1.44-1.21l1.68,2a.94.94,0,0,1-.12,1.32A.91.91,0,0,1,42.06,26.69Z"/><path class="cls-1" d="M37.84,34l-.17,0-2.57-.45a.94.94,0,0,1,.32-1.85l2.58.45A.94.94,0,0,1,37.84,34Z"/><path class="cls-1" d="M37,43.64a.94.94,0,0,1-.47-1.76l2.26-1.3a.94.94,0,1,1,.94,1.62l-2.26,1.31A.9.9,0,0,1,37,43.64Z"/><path class="cls-1" d="M63,43.64a.9.9,0,0,1-.47-.13L60.23,42.2a.94.94,0,1,1,.94-1.62l2.26,1.3A.94.94,0,0,1,63,43.64Z"/><path class="cls-1" d="M62.16,34A.94.94,0,0,1,62,32.14l2.58-.45a.94.94,0,1,1,.32,1.85L62.33,34Z"/><path class="cls-1" d="M57.94,26.69a.91.91,0,0,1-.6-.22.94.94,0,0,1-.12-1.32l1.68-2a.94.94,0,0,1,1.44,1.21l-1.68,2A.92.92,0,0,1,57.94,26.69Z"/></svg>