<svg id="Layer_1" data-name="Layer 1" xmlns="http://www.w3.org/2000/svg" viewBox="0 0 100 100"><defs><style>.cls-1{fill:#006394;}</style></defs><path class="cls-1" d="M61.57,76.64H38.43a5.06,5.06,0,0,1-5-5V28.41a5.06,5.06,0,0,1,5-5.05H61.57a5.06,5.06,0,0,1,5.05,5.05V71.59A5.06,5.06,0,0,1,61.57,76.64ZM38.43,25.24a3.17,3.17,0,0,0-3.17,3.17V71.59a3.17,3.17,0,0,0,3.17,3.17H61.57a3.17,3.17,0,0,0,3.17-3.17V28.41a3.17,3.17,0,0,0-3.17-3.17Z"/><path class="cls-1" d="M65.68,68.22H34.32a.94.94,0,0,1-.94-.94V31.65a.94.94,0,0,1,.94-.94H65.68a.94.94,0,0,1,.94.94V67.28A.94.94,0,0,1,65.68,68.22ZM35.26,66.34H64.74V32.59H35.26Z"/><path class="cls-1" d="M52.89,28.94H47.11a.94.94,0,1,1,0-1.88h5.78a.94.94,0,0,1,0,1.88Z"/><path class="cls-1" d="M50.47,72.55h-.94a.94.94,0,0,1,0-1.88h.94a.94.94,0,0,1,0,1.88Z"/></svg>