<svg id="Layer_1" data-name="Layer 1" xmlns="http://www.w3.org/2000/svg" viewBox="0 0 100 100"><defs><style>.cls-1{fill:#006394;}</style></defs><path class="cls-1" d="M59.64,61.41a1,1,0,0,1-.67-.28,12.67,12.67,0,0,0-17.94,0A.94.94,0,1,1,39.7,59.8a14.56,14.56,0,0,1,20.6,0,.95.95,0,0,1-.66,1.61Z"/><path class="cls-1" d="M69.85,51.2a1,1,0,0,1-.67-.28,27.15,27.15,0,0,0-38.36,0,.94.94,0,0,1-1.33-1.33,29,29,0,0,1,41,0,.95.95,0,0,1-.66,1.61Z"/><path class="cls-1" d="M79.79,41.25a.93.93,0,0,1-.66-.27,41.24,41.24,0,0,0-58.26,0,.94.94,0,1,1-1.33-1.33,43.12,43.12,0,0,1,60.92,0,1,1,0,0,1,0,1.33A1,1,0,0,1,79.79,41.25Z"/><path class="cls-1" d="M50,73a4,4,0,1,1,4-4A4,4,0,0,1,50,73Zm0-6.08A2.1,2.1,0,1,0,52.1,69,2.1,2.1,0,0,0,50,66.87Z"/></svg>